<?xml version="1.0" encoding="UTF-8"?>
<svg width="183px" height="183px" viewBox="0 0 183 183" version="1.1" xmlns="http://www.w3.org/2000/svg" xmlns:xlink="http://www.w3.org/1999/xlink">
    <!-- Generator: Sketch 42 (36781) - http://www.bohemiancoding.com/sketch -->
    <title>about me</title>
    <desc>Created with Sketch.</desc>
    <defs>
        <path d="M90.6877897,16.5556958 C86.383063,10.6125127 76.2638303,0.271753151 45.3680949,0.271753151 C14.4723595,0.271753151 4.8496778,21.231261 1.50002736,34.1996885 C-2.59818842,50.066244 3.68476358,68.7130929 13.6551545,76.6001506 C23.6255455,84.4872083 28.6100706,104.515838 28.6100706,111.340634 C28.6100706,129.896168 24.1692504,141.385205 17.3762527,150.23056 C14.5008212,153.974741 28.2786385,169.327543 45.3680949,171.268738 C62.4575514,173.209932 85.047701,163.269716 80.1316585,155.702114 C76.9899951,150.865935 75.2523316,149.678486 73.1838741,145.461785 C70.6276666,140.250769 75.1831387,128.977021 76.9899951,126.749882 C78.7968516,124.522742 92.8967705,126.165556 96.3288266,123.669379 C99.7608826,121.173202 99.6318563,117.065842 99.7608826,116.390882 C99.889909,115.715921 99.7608826,108.046057 99.7608826,102.169135 C99.7608826,96.2922138 96.2468128,91.1965868 96.3288266,86.9631897 C96.3609176,85.3067102 101.820343,84.3098091 101.832182,82.6144024 C101.836039,82.0620732 100.724011,76.9521668 99.7608826,73.8670118 C98.7977541,70.7818568 93.51679,60.881147 93.51679,55.5095272 C93.51679,52.207499 96.2104597,49.0890328 96.3288266,44.3358635 C96.4471935,39.5826943 94.6063185,21.9656871 90.6877897,16.5556958 Z" id="path-1"></path>
        <filter x="-50%" y="-50%" width="200%" height="200%" filterUnits="objectBoundingBox" id="filter-2">
            <feOffset dx="7" dy="-2" in="SourceAlpha" result="shadowOffsetInner1"></feOffset>
            <feComposite in="shadowOffsetInner1" in2="SourceAlpha" operator="arithmetic" k2="-1" k3="1" result="shadowInnerInner1"></feComposite>
            <feColorMatrix values="0 0 0 0 0   0 0 0 0 0   0 0 0 0 0  0 0 0 0.5 0" type="matrix" in="shadowInnerInner1"></feColorMatrix>
        </filter>
    </defs>
    <g id="icons" stroke="none" stroke-width="1" fill="none" fill-rule="evenodd">
        <g id="about-me">
            <g id="Group" transform="translate(40.000000, 5.000000)">
                <g id="Path-7">
                    <use fill="#9B9B9B" fill-rule="evenodd" xlink:href="#path-1"></use>
                    <use fill="black" fill-opacity="1" filter="url(#filter-2)" xlink:href="#path-1"></use>
                </g>
                <ellipse id="Oval" fill="#FFFFFF" cx="51.1898734" cy="130.067662" rx="12.4810127" ry="12.5343284"></ellipse>
                <path d="M57.3602478,109.429682 C66.2876085,108.009687 63.0763355,100.4179 61.9497057,93.2742534 C60.823076,86.1306067 56.9654382,77.4334616 63.1538643,70.9075878 C67.0525022,66.7963616 75.462585,65.0308321 80.0876087,57.1696876 C84.7126324,49.308543 83.9937775,44.2639822 82.7873727,36.3539813 C79.5269194,14.9762581 57.7088034,6.73288987 39.0648555,11.2898867 C20.4209076,15.8468835 9.00517406,27.3027496 9.00517406,43.7904431 C9.00517406,60.2781366 18.5350963,67.7987336 23.8450831,63.3403996 C29.1550699,58.8820655 24.7547373,53.296936 22.9016893,41.5894514 C21.0486412,29.8819667 36.4532691,21.8058114 45.5441957,21.8058114 C54.6351223,21.8058114 68.0204285,27.1844259 70.5341414,38.2947024 C73.0478543,49.404979 70.7337414,52.2913692 56.8151096,60.8556893 C42.8964778,69.4200094 47.0992728,83.4094743 48.559132,91.631537 C50.0189912,99.8535997 48.4328871,110.849677 57.3602478,109.429682 Z" id="Path-8" fill="#FFFFFF" transform="translate(46.347939, 59.814756) rotate(9.000000) translate(-46.347939, -59.814756) "></path>
            </g>
        </g>
    </g>
</svg>