<?xml version="1.0" encoding="UTF-8"?>
<svg width="183px" height="183px" viewBox="0 0 183 183" version="1.1" xmlns="http://www.w3.org/2000/svg" xmlns:xlink="http://www.w3.org/1999/xlink">
    <!-- Generator: Sketch 42 (36781) - http://www.bohemiancoding.com/sketch -->
    <title>about me</title>
    <desc>Created with Sketch.</desc>
    <defs></defs>
    <g id="icons" stroke="none" stroke-width="1" fill="none" fill-rule="evenodd">
        <g id="about-me">
            <g id="Group" transform="translate(42.000000, 6.000000)">
                <path d="M87.7940659,23.3508245 C83.4893393,17.4076414 75.7859984,3.42978283 47.2359231,0.693298128 C18.6858478,-2.04318657 5.03441402,21.9873909 1.68476358,34.9558185 C-2.4134522,50.822374 1.68476358,67.7130929 11.6551545,75.6001506 C21.6255455,83.4872083 26.6100706,103.515838 26.6100706,110.340634 C26.6100706,128.896168 22.1692504,140.385205 15.3762527,149.23056 C12.5008212,152.974741 26.2786385,168.327543 43.3680949,170.268738 C60.4575514,172.209932 83.047701,162.269716 78.1316585,154.702114 C74.9899951,149.865935 73.2523316,148.678486 71.1838741,144.461785 C68.6276666,139.250769 73.1831387,127.977021 74.9899951,125.749882 C76.7968516,123.522742 90.8967705,125.165556 94.3288266,122.669379 C97.7608826,120.173202 97.6318563,116.065842 97.7608826,115.390882 C97.889909,114.715921 97.7608826,107.046057 97.7608826,101.169135 C97.7608826,95.2922138 94.2468128,90.1965868 94.3288266,85.9631897 C94.3609176,84.3067102 99.820343,83.3098091 99.8321821,81.6144024 C99.836039,81.0620732 98.7240112,75.9521668 97.7608826,72.8670118 C96.7977541,69.7818568 91.51679,59.881147 91.51679,54.5095272 C91.51679,51.207499 94.2104597,48.0890328 94.3288266,43.3358635 C94.4471935,38.5826943 91.7125947,28.7608157 87.7940659,23.3508245 Z" id="Path-7" fill="#9B9B9B"></path>
                <ellipse id="Oval" fill="#FFFFFF" cx="49.1898734" cy="129.067662" rx="12.4810127" ry="12.5343284"></ellipse>
                <path d="M55.3354145,108.745219 C64.2627752,107.325224 63.7199064,103.22095 62.5932766,96.0773035 C61.4666468,88.9336569 54.9406049,76.7489988 61.1290309,70.223125 C67.317457,63.6972512 84.0229926,57.0472416 80.7625393,35.6695185 C77.5020861,14.2917953 55.6839701,6.04842706 37.0400222,10.6054239 C18.3960743,15.1624207 11.50009,25.4262346 11.50009,41.9139281 C11.50009,58.4016216 22.0143674,66.6312207 27.3243541,62.1728866 C32.6343409,57.7145526 28.778253,49.7297455 26.925205,38.0222609 C25.0721569,26.3147762 39.4685743,22.5425148 48.5595009,22.5425148 C57.6504274,22.5425148 64.2605167,28.0153834 66.7742296,39.12566 C69.2879426,50.2359366 50.3807994,59.1516238 47.629792,68.3136975 C44.8787846,77.4757712 45.0744395,82.7250114 46.5342987,90.9470742 C47.9941579,99.1691369 46.4080538,110.165214 55.3354145,108.745219 Z" id="Path-8" fill="#FFFFFF" transform="translate(46.340163, 59.130293) rotate(9.000000) translate(-46.340163, -59.130293) "></path>
            </g>
        </g>
    </g>
</svg>