<svg width="95" height="87" viewBox="0 0 95 87" version="1.1" xmlns="http://www.w3.org/2000/svg" xmlns:xlink="http://www.w3.org/1999/xlink" xmlns:figma="http://www.figma.com/figma/ns">
<title>cart_light</title>
<desc>Created using Figma</desc>
<g id="Canvas" transform="translate(199 22)" figma:type="canvas">
<g id="cart_light" figma:type="frame">
<g id="Vector" figma:type="vector">
<use xlink:href="#path0_fill" transform="translate(-199 -22)" fill="#FFFFFF"/>
</g>
</g>
</g>
<defs>
<path id="path0_fill" d="M 94.298 21.566C 93.923 21.038 93.316 20.724 92.667 20.724L 19.331 20.724L 14.297 1.494C 14.066 0.614 13.271 0 12.362 0L 2 0C 0.896 0 -7.24792e-08 0.896 -7.24792e-08 2C -7.24792e-08 3.104 0.896 4 2 4L 10.818 4L 23.081 50.835L 19.332 63.428C 19.152 64.033 19.269 64.688 19.645 65.195C 20.023 65.701 20.617 65.999 21.249 65.999L 78.851 65.999C 79.955 65.999 80.851 65.103 80.851 63.999C 80.851 62.895 79.955 61.999 78.851 61.999L 23.931 61.999L 26.648 52.873L 82.824 52.873C 83.674 52.873 84.431 52.335 84.712 51.533L 94.556 23.384C 94.769 22.772 94.673 22.095 94.298 21.566ZM 81.404 48.873L 26.701 48.873L 20.379 24.724L 89.849 24.724L 81.404 48.873ZM 33.583 69.834C 29.034 69.834 25.333 73.535 25.333 78.084C 25.333 82.633 29.034 86.334 33.583 86.334C 38.132 86.334 41.833 82.633 41.833 78.084C 41.833 73.535 38.132 69.834 33.583 69.834ZM 33.583 82.334C 31.239 82.334 29.333 80.427 29.333 78.084C 29.333 75.741 31.239 73.834 33.583 73.834C 35.927 73.834 37.833 75.741 37.833 78.084C 37.833 80.427 35.927 82.334 33.583 82.334ZM 68.24 69.834C 63.691 69.834 59.99 73.535 59.99 78.084C 59.99 82.633 63.691 86.334 68.24 86.334C 72.789 86.334 76.49 82.633 76.49 78.084C 76.49 73.535 72.789 69.834 68.24 69.834ZM 68.24 82.334C 65.896 82.334 63.99 80.427 63.99 78.084C 63.99 75.741 65.896 73.834 68.24 73.834C 70.584 73.834 72.49 75.741 72.49 78.084C 72.49 80.427 70.584 82.334 68.24 82.334Z"/>
</defs>
</svg>
