<?xml version="1.0" encoding="UTF-8"?>
<svg width="183px" height="183px" viewBox="0 0 183 183" version="1.1" xmlns="http://www.w3.org/2000/svg" xmlns:xlink="http://www.w3.org/1999/xlink">
    <!-- Generator: Sketch 42 (36781) - http://www.bohemiancoding.com/sketch -->
    <title>coding</title>
    <desc>Created with Sketch.</desc>
    <defs></defs>
    <g id="icons" stroke="none" stroke-width="1" fill="none" fill-rule="evenodd">
        <g id="coding">
            <g id="Group" transform="translate(12.000000, 23.000000)">
                <rect id="Rectangle-Copy" fill="#E1DB92" x="3.55271368e-15" y="0" width="36.4285714" height="12.1728395" rx="6.08641975"></rect>
                <rect id="Rectangle-Copy-2" fill="#E14A69" x="46.4285714" y="0" width="87.1428571" height="12.1728395" rx="6.08641975"></rect>
                <rect id="Rectangle-Copy-5" fill="#2F888E" x="20" y="20.7654321" width="53.4078171" height="12.1728395" rx="6.08641975"></rect>
                <rect id="Rectangle-Copy-14" fill="#E14A69" x="83.5714286" y="20.7654321" width="26.2290967" height="12.1728395" rx="6.08641975"></rect>
                <rect id="Rectangle-Copy-6" fill="#184155" x="20" y="41.5308642" width="87.1428571" height="12.1728395" rx="6.08641975"></rect>
                <rect id="Rectangle-Copy-15" fill="#E1DB92" x="112.142857" y="41.5308642" width="41.4285714" height="12.1728395" rx="6.08641975"></rect>
                <rect id="Rectangle-Copy-7" fill="#E14A69" x="0" y="62" width="26.2290967" height="12.1728395" rx="6.08641975"></rect>
                <rect id="Rectangle-Copy-10" fill="#184155" x="0" y="124.296296" width="46.7039085" height="12.1728395" rx="6.08641975"></rect>
                <rect id="Rectangle-Copy-16" fill="#2F888E" x="36" y="62" width="62.8571429" height="12.1728395" rx="6.08641975"></rect>
                <rect id="Rectangle-Copy-8" fill="#2F888E" x="20" y="83.0617284" width="62.8571429" height="12.1728395" rx="6.08641975"></rect>
                <rect id="Rectangle-Copy-17" fill="#E1DB92" x="90.7142857" y="83.0617284" width="41.4285714" height="12.1728395" rx="6.08641975"></rect>
                <rect id="Rectangle-Copy-9" fill="#E14A69" x="36.4285714" y="103.82716" width="62.8571429" height="12.1728395" rx="6.08641975"></rect>
                <rect id="Rectangle-Copy-18" fill="#2F888E" x="105.714286" y="103.82716" width="53.5714286" height="12.1728395" rx="6.08641975"></rect>
            </g>
        </g>
    </g>
</svg>