<?xml version="1.0" encoding="UTF-8"?>
<svg width="191px" height="191px" viewBox="0 0 191 191" version="1.1" xmlns="http://www.w3.org/2000/svg" xmlns:xlink="http://www.w3.org/1999/xlink">
    <!-- Generator: Sketch 42 (36781) - http://www.bohemiancoding.com/sketch -->
    <title>drupal8</title>
    <desc>Created with Sketch.</desc>
    <defs>
        <filter x="-50%" y="-50%" width="200%" height="200%" filterUnits="objectBoundingBox" id="filter-1">
            <feOffset dx="0" dy="10" in="SourceAlpha" result="shadowOffsetOuter1"></feOffset>
            <feGaussianBlur stdDeviation="10" in="shadowOffsetOuter1" result="shadowBlurOuter1"></feGaussianBlur>
            <feColorMatrix values="0 0 0 0 0   0 0 0 0 0   0 0 0 0 0  0 0 0 0.22 0" type="matrix" in="shadowBlurOuter1" result="shadowMatrixOuter1"></feColorMatrix>
            <feMerge>
                <feMergeNode in="shadowMatrixOuter1"></feMergeNode>
                <feMergeNode in="SourceGraphic"></feMergeNode>
            </feMerge>
        </filter>
        <linearGradient x1="79.7636501%" y1="7.34219012%" x2="20.8521403%" y2="92.0144388%" id="linearGradient-2">
            <stop stop-color="#FFFFFF" stop-opacity="0.5" offset="0%"></stop>
            <stop stop-color="#000000" stop-opacity="0.5" offset="100%"></stop>
        </linearGradient>
        <circle id="path-3" cx="60" cy="63" r="60"></circle>
        <mask id="mask-4" maskContentUnits="userSpaceOnUse" maskUnits="objectBoundingBox" x="-3" y="-3" width="126" height="126">
            <rect x="-3" y="0" width="126" height="126" fill="white"></rect>
            <use xlink:href="#path-3" fill="black"></use>
        </mask>
    </defs>
    <g id="icons" stroke="none" stroke-width="1" fill="none" fill-rule="evenodd">
        <g id="drupal8">
            <g id="Group" filter="url(#filter-1)" transform="translate(35.000000, 32.000000)">
                <g id="bg">
                    <use fill="#0073BA" fill-rule="evenodd" xlink:href="#path-3"></use>
                    <use fill-opacity="0.400000006" fill="url(#linearGradient-2)" fill-rule="evenodd" style="mix-blend-mode: multiply;" xlink:href="#path-3"></use>
                    <use stroke="#FFFFFF" mask="url(#mask-4)" stroke-width="6" xlink:href="#path-3"></use>
                </g>
                <g id="Group-2" transform="translate(58.000000, 62.000000) rotate(-7.000000) translate(-58.000000, -62.000000) translate(9.000000, 6.000000)" fill="#FFFFFF">
                    <path d="M87.7452007,33.9765863 C93.0314067,40.9807164 97.6775116,50.920024 97.6775116,64.2953071 C97.6775116,92.7879399 75.1948778,111.601573 49.2656364,111.601573 C47.7340878,111.601573 46.2115251,111.530259 44.7022336,111.390336 C49.0768355,111.046982 53.0834355,109.710689 56.7221188,107.381433 C61.0823509,104.590287 64.6176226,100.742783 67.3280399,95.8388052 C69.1780073,92.4916456 70.3577458,89.1662617 70.8672908,85.8625537 C71.3768358,82.5588457 71.2177052,79.3159239 70.3898943,76.1336909 C69.5620833,72.951458 68.0014732,69.8833874 65.708017,66.929387 C70.2953945,66.9865493 74.309371,66.0126842 77.750067,64.0077625 C81.190763,62.0028407 83.9651205,59.0933209 86.0732229,55.2791158 C87.729589,52.2822403 88.7821842,49.1660051 89.2310401,45.9303168 C89.679896,42.6946284 89.4305113,39.4269712 88.4828786,36.1272472 C88.2747448,35.4025108 88.0288524,34.6856242 87.7452007,33.9765863 Z M13.0232725,96.0370619 C5.03447936,87.6232761 -1.09690035e-13,76.3195273 -1.09690035e-13,63.4390569 C-1.09690035e-13,35.6944753 21.6211113,22.7975313 25.6014489,20.7529097 C30.3395642,18.1685909 33.7856544,16.8808426 39.2613675,12.5873966 C41.8472287,10.4361329 44.1081433,7.4190186 44.8547962,2.84217094e-14 C48.7337173,4.62167521 53.3569629,9.99711005 56.689477,12.2537185 C58.1177077,13.1978014 59.5468333,13.9894438 60.9824493,14.7096333 C60.1334239,14.6246943 59.2861206,14.5813984 58.4405387,14.5797456 C53.5727832,14.5702306 49.2242665,15.7524235 45.3948581,18.12636 C41.5654498,20.5002964 38.575228,23.6332407 36.4241031,27.5252867 C31.9712746,35.5818221 32.3339745,43.4915247 37.5122137,51.2546319 C26.3864399,50.1574453 17.9304169,54.8435836 12.143891,65.3131876 C9.43347368,70.2171656 8.04658785,75.2335722 7.98319192,80.3625579 C7.91979599,85.4915436 9.34891292,90.3435732 12.2705856,94.9187925 C12.5114763,95.2960174 12.7623719,95.6687738 13.0232725,96.0370619 Z" id="Combined-Shape" fill-rule="nonzero"></path>
                    <path d="M53.0642749,87.2986738 C54.7421523,84.2628779 55.6395715,81.3020486 55.7565595,78.4160971 C55.8735475,75.5301457 55.2408107,72.9143052 53.8583301,70.5684973 C52.4758495,68.2226894 50.5126412,66.3426783 47.9686463,64.9284076 C44.3646534,62.9248575 40.6123332,62.568712 36.7115731,63.8599606 C32.810813,65.1512092 29.5482957,68.1709363 26.9239234,72.9192325 C25.246046,75.9550285 24.3413267,78.9499583 24.2097385,81.9041117 C24.0781503,84.8582652 24.6521211,87.5177537 25.9316683,89.882657 C27.2112155,92.2475603 29.0699588,94.1076554 31.507954,95.4629982 C33.9812824,96.8379836 36.5621749,97.4332739 39.2507089,97.248887 C41.9392428,97.0645001 44.4941412,96.1189894 46.9154805,94.4123265 C49.3368199,92.7056636 51.3863975,90.3344698 53.0642749,87.2986738 Z" id="Path"></path>
                    <path d="M67.3701391,30.0758566 C64.0488123,28.2294476 60.7431632,27.8799457 57.4530925,29.0273404 C54.1630218,30.174735 51.5285085,32.5387381 49.5494736,36.1194205 C47.7210175,39.4276596 47.2414351,42.7606904 48.1107121,46.1186127 C48.9799891,49.476535 51.0575932,52.0688404 54.3435867,53.8956067 C56.0042501,54.8188112 57.6760564,55.3666227 59.3590558,55.5390578 C61.0420551,55.7114928 62.6543871,55.5521031 64.1960999,55.0608837 C65.7378127,54.5696643 67.1662275,53.7610882 68.481387,52.6351311 C69.7965465,51.509174 70.9273568,50.0899666 71.8738518,48.3774664 C73.1430154,46.0811592 73.8149358,43.7581445 73.889633,41.4083527 C73.9643302,39.0585608 73.4440901,36.8868477 72.3288972,34.8931481 C71.2137043,32.8994486 69.5608014,31.2937008 67.3701391,30.0758566 Z" id="Path"></path>
                </g>
            </g>
        </g>
    </g>
</svg>