<?xml version="1.0" encoding="UTF-8"?>
<svg width="274px" height="274px" viewBox="0 0 274 274" version="1.1" xmlns="http://www.w3.org/2000/svg" xmlns:xlink="http://www.w3.org/1999/xlink">
    <!-- Generator: Sketch 43.1 (39012) - http://www.bohemiancoding.com/sketch -->
    <title>home_dark</title>
    <desc>Created with Sketch.</desc>
    <defs></defs>
    <g id="icons" stroke="none" stroke-width="1" fill="none" fill-rule="evenodd">
        <g id="home_dark" fill-rule="nonzero" fill="#184155">
            <g id="noun_894482_cc" transform="translate(15.000000, 40.000000)">
                <g id="Group" transform="translate(0.000000, 0.825414)">
                    <path d="M121.336388,0.102213588 C120.061853,0.129584176 118.872672,0.552398941 117.729357,1.33769153 L2.30435989,92.5730465 C-0.351325755,94.7082565 -0.728279505,98.6487088 1.26006739,101.22124 C3.21955864,103.756973 7.38822364,104.16297 9.89810989,102.171608 L121.526232,13.9775812 L233.154372,102.171608 C235.664258,104.16297 239.718106,103.741463 241.697341,101.22124 C243.661996,98.7198724 243.450586,94.5647129 240.748122,92.5730465 L197.463732,58.3597504 L197.463732,6.18456653 C197.463396,2.82551488 194.743723,0.102549443 191.388732,0.102213588 L167.088732,0.102213588 C163.733741,0.102549443 161.014067,2.82551488 161.013732,6.18456653 L161.013732,29.5636106 L125.323107,1.33769153 C123.971116,0.445927353 122.610923,0.0756032941 121.336388,0.102213588 Z M173.163732,12.2669195 L185.313732,12.2669195 L185.313732,48.7610371 L173.163732,39.1623239 L173.163732,12.2669195 Z M45.5887318,81.928868 L33.4387318,91.52749 L33.4387318,188.655064 C33.4390671,192.014115 36.1587409,194.737081 39.5137318,194.737416 L94.1887318,194.737416 C97.5437228,194.737081 100.263397,192.014115 100.263732,188.655064 L100.263732,155.202122 C100.263732,143.303519 109.641709,133.914191 121.526232,133.914191 C133.410754,133.914191 142.788732,143.303519 142.788732,155.202122 L142.788732,188.655064 C142.789067,192.014115 145.508741,194.737081 148.863732,194.737416 L203.538732,194.737416 C206.893723,194.737081 209.613397,192.014115 209.613732,188.655064 L209.613732,91.52749 L197.463732,81.928868 L197.463732,182.572711 L154.938732,182.572711 L154.938732,155.202122 C154.938732,136.774418 139.931659,121.749181 121.526232,121.749181 C103.120804,121.749181 88.1137318,136.774418 88.1137318,155.202122 L88.1137318,182.572711 L45.5887318,182.572711 L45.5887318,81.928868 Z" id="Shape"></path>
                </g>
            </g>
        </g>
    </g>
</svg>