<?xml version="1.0" encoding="UTF-8"?>
<svg width="191px" height="191px" viewBox="0 0 191 191" version="1.1" xmlns="http://www.w3.org/2000/svg" xmlns:xlink="http://www.w3.org/1999/xlink">
    <!-- Generator: Sketch 42 (36781) - http://www.bohemiancoding.com/sketch -->
    <title>reactjs</title>
    <desc>Created with Sketch.</desc>
    <defs>
        <filter x="-50%" y="-50%" width="200%" height="200%" filterUnits="objectBoundingBox" id="filter-1">
            <feOffset dx="0" dy="10" in="SourceAlpha" result="shadowOffsetOuter1"></feOffset>
            <feGaussianBlur stdDeviation="10" in="shadowOffsetOuter1" result="shadowBlurOuter1"></feGaussianBlur>
            <feColorMatrix values="0 0 0 0 0   0 0 0 0 0   0 0 0 0 0  0 0 0 0.22 0" type="matrix" in="shadowBlurOuter1" result="shadowMatrixOuter1"></feColorMatrix>
            <feMerge>
                <feMergeNode in="shadowMatrixOuter1"></feMergeNode>
                <feMergeNode in="SourceGraphic"></feMergeNode>
            </feMerge>
        </filter>
        <linearGradient x1="79.7636501%" y1="7.34219012%" x2="20.8521403%" y2="92.0144388%" id="linearGradient-2">
            <stop stop-color="#FFFFFF" stop-opacity="0.5" offset="0%"></stop>
            <stop stop-color="#000000" stop-opacity="0.5" offset="100%"></stop>
        </linearGradient>
        <circle id="path-3" cx="60" cy="60" r="60"></circle>
        <mask id="mask-4" maskContentUnits="userSpaceOnUse" maskUnits="objectBoundingBox" x="-3" y="-3" width="126" height="126">
            <rect x="-3" y="-3" width="126" height="126" fill="white"></rect>
            <use xlink:href="#path-3" fill="black"></use>
        </mask>
    </defs>
    <g id="icons" stroke="none" stroke-width="1" fill="none" fill-rule="evenodd">
        <g id="reactjs">
            <g id="Group" filter="url(#filter-1)" transform="translate(35.000000, 35.000000)">
                <g id="bg">
                    <use fill="#53C1DE" fill-rule="evenodd" xlink:href="#path-3"></use>
                    <use fill-opacity="0.400000006" fill="url(#linearGradient-2)" fill-rule="evenodd" style="mix-blend-mode: multiply;" xlink:href="#path-3"></use>
                    <use stroke="#FFFFFF" mask="url(#mask-4)" stroke-width="6" xlink:href="#path-3"></use>
                </g>
                <g transform="translate(7.000000, 13.000000)" fill-rule="nonzero" fill="#FFFFFF">
                    <path d="M87.0563137,30.4999056 C98.4374884,34.4238509 105.792067,40.5706335 105.792067,46.9262012 C105.792067,53.5545441 97.932415,60.0352894 85.8516926,64.0437764 C85.2132387,64.2558311 84.5589285,64.4594783 83.8920263,64.6565863 C84.1298725,65.615036 84.3420687,66.5562037 84.5239511,67.477754 C86.9089424,79.5429168 85.0723965,89.4595081 79.4200511,92.7365466 C73.9472562,95.9094261 65.1021752,92.7925963 56.1460992,85.074087 C55.1726146,84.2330837 54.2227263,83.3650663 53.297541,82.471046 C52.5630159,83.1824099 51.8294235,83.8610783 51.0986294,84.5009789 C41.8524743,92.5954882 32.3572802,95.9537988 26.6998048,92.6865689 C21.2223463,89.5220969 19.5009926,80.2911801 21.7050342,68.6655404 C21.9458671,67.4020824 22.2219076,66.1456118 22.5328323,64.8976 C21.575749,64.6239817 20.6256236,64.3265146 19.6833414,64.0054758 C8.06245502,60.0278161 0.414066859,53.4672 0.414066859,46.9262012 C0.414066859,40.5935205 7.53919334,34.487841 18.69558,30.5923876 C19.9426404,30.1570683 21.2461309,29.7479056 22.5957916,29.3639652 C22.3066607,28.2055494 22.046967,27.0399625 21.8169618,25.8683329 C19.5051899,14.0371776 21.1318715,4.58206211 26.6237873,1.39797267 C32.3512174,-1.92250435 41.8897835,1.64319006 51.405964,10.105759 C51.997896,10.6333028 52.5800196,11.1717836 53.152035,11.7209242 C54.0062066,10.8950752 54.8810759,10.0909727 55.7758053,9.30938634 C64.8559344,1.39563727 73.8465214,-1.91503106 79.3435672,1.26018385 C85.0770601,4.57085217 86.7559746,14.6280348 84.1881682,27.1121689 C84.0277182,27.887736 83.8529568,28.660264 83.6639738,29.4293565 C84.803552,29.7576139 85.9346909,30.1145768 87.0563137,30.4999056 Z M84.4358081,59.7643826 L84.4362744,59.7643826 C94.8665306,56.3028472 101.29071,51.0061516 101.29071,46.9262012 C101.29071,43.0961391 95.3426894,38.1249988 85.5909945,34.7634186 C84.5827131,34.4154435 83.5361897,34.0861516 82.4584199,33.7732075 C81.1619248,37.9745988 79.4317102,42.4132671 77.3298025,46.9486211 C79.5319787,51.5937391 81.3321481,56.0903255 82.6659524,60.3188075 C83.2684961,60.1399155 83.8598471,59.9554186 84.4358081,59.7643826 Z M80.1079396,68.3535304 L80.1079396,68.3535304 C79.9433127,67.5207255 79.752103,66.6692373 79.5375751,65.8004671 C75.1728638,66.8107627 70.3599757,67.5510857 65.265403,68.003687 C62.3692755,72.2027429 59.4017942,75.9842286 56.4324474,79.2369789 C57.3194738,80.0917366 58.2041685,80.8997863 59.082334,81.6564571 C66.7409822,88.2572422 73.8432568,90.7598609 77.1642429,88.834554 C78.7247007,87.9298186 79.9866847,85.6710161 80.6144122,82.2828124 C81.3130271,78.5120696 81.1623912,73.6885267 80.1079396,68.3535304 Z M36.339572,88.5019925 L36.3400384,88.5019925 C39.9506373,87.2245267 44.0476549,84.6854758 48.136278,81.1057689 C48.8205823,80.5051952 49.4900191,79.8878388 50.1439799,79.2542609 C47.0669028,75.9468621 44.0136103,72.1700472 41.0983618,68.0611379 C35.9916637,67.6463702 31.2137529,66.9583602 26.8975436,66.002246 C26.6087477,67.1629098 26.3521482,68.3313723 26.1280411,69.5062857 C24.2434596,79.4480994 25.6248331,86.8606708 28.9490838,88.7803727 C30.5109406,89.6823056 33.0950698,89.6496099 36.339572,88.5019925 Z M21.1393333,59.7391602 L21.1393333,59.7391602 C21.9996587,60.0323078 22.8670489,60.3042309 23.740718,60.5546832 C25.0717241,56.2084969 26.8261897,51.6455851 28.9406892,47.0359652 C26.8532389,42.494072 25.1234906,38.0026236 23.80461,33.706882 C22.584759,34.0523354 21.3752671,34.4334809 20.1776884,34.8498286 C10.6363242,38.1815155 4.91542311,43.083528 4.91542311,46.9262012 C4.91542311,48.7324025 6.23523643,50.9580422 8.84874663,53.2000298 C11.757466,55.694241 16.0009223,57.9801342 21.1393333,59.7391602 Z M26.2348387,25.0023652 L26.2348387,25.0018981 C26.4489434,26.091759 26.6904418,27.1760421 26.9591038,28.2537143 C31.3205505,27.2639702 36.064883,26.5250484 41.0209452,26.0649739 C43.91101,21.9798857 46.9363206,18.2315627 49.9975413,14.9391106 C49.4691496,14.4332621 48.9416906,13.9442286 48.4165635,13.4771478 C40.2001426,6.17060373 32.4048494,3.25601988 28.879129,5.29996522 C25.5693357,7.21873292 24.254186,14.8653118 26.2348387,25.0023652 Z M71.690049,36.2435975 L71.690049,36.2435975 C72.7369074,38.0538507 73.7475667,39.8848608 74.7214224,41.7355329 C76.0542939,38.6107627 77.1861621,35.5625938 78.094175,32.6475429 C75.0693308,31.9557963 71.8481468,31.3906286 68.4856542,30.9655851 C69.5915049,32.7016725 70.6598844,34.4614183 71.690049,36.2435975 Z M53.1534341,18.1610335 L53.1534341,18.1610335 C51.044531,20.4399205 48.947287,22.9518807 46.8999441,25.6558112 C51.0492773,25.4613085 55.2054457,25.4622437 59.3546913,25.6586137 C57.3092138,22.9294609 55.2296917,20.413764 53.1534341,18.1610335 Z M34.4978961,36.2744248 L34.4978961,36.2744248 C35.5330293,34.4769287 36.6101633,32.7040244 37.7284074,30.9571776 C34.387834,31.3752149 31.1815737,31.9259031 28.1749177,32.5999006 C29.0908588,35.5565217 30.2124669,38.618236 31.5234193,41.7322634 C32.4723824,39.8900561 33.4641447,38.0702812 34.4978961,36.2744248 Z M37.8244786,63.2170435 L37.8244786,63.2170435 C36.6788294,61.4369647 35.5757179,59.6297829 34.5160844,57.7970385 C33.4776334,56.0003759 32.481513,54.1795031 31.5285493,52.3359304 C30.189615,55.5167503 29.0432896,58.644323 28.1128911,61.6532571 C31.1186144,62.3085714 34.3733766,62.8312348 37.8244786,63.2170435 Z M53.2779536,76.009918 C55.3402202,73.7357019 57.4122805,71.1817043 59.4642871,68.3885615 C57.3745049,68.4819776 55.2511445,68.530087 53.1030667,68.530087 C51.0123518,68.530087 48.9552152,68.489918 46.9377197,68.4105143 C49.016309,71.1536795 51.1443331,73.7039404 53.2779536,76.009918 Z M74.764328,52.1738534 L74.764328,52.1738534 C73.787181,54.0602947 72.7682318,55.9247199 71.7082373,57.7657441 C70.6655112,59.5772182 69.5869061,61.3677372 68.4730623,63.1362385 C71.9488817,62.7186683 75.2474822,62.1563031 78.3031066,61.4580174 C77.3601163,58.499995 76.1727507,55.3892373 74.764328,52.1738534 Z M67.808492,55.5134807 L67.8089584,55.5134807 C69.4190544,52.7205839 70.9293246,49.8711424 72.3368975,46.9705739 C70.914695,44.0992596 69.3996062,41.2750414 67.7940347,38.5024 C66.1974829,35.7370051 64.50399,33.0288984 62.7167175,30.3831354 C59.5836766,30.1439901 56.3662235,30.0188124 53.1035331,30.0188124 C49.8552999,30.0188124 46.6420442,30.1430559 43.5080705,30.3803329 C41.7025353,33.0301735 39.9981414,35.7477397 38.3985741,38.5271553 L38.3985741,38.5262211 C36.7985048,41.3050449 35.3033693,44.1431657 33.9163388,47.034564 C35.3069062,49.9250963 36.8065734,52.7616976 38.4120987,55.538236 C40.0251636,58.3295843 41.7430819,61.0588201 43.5621688,63.7200894 C46.634116,63.9195329 49.8240535,64.0218236 53.1030667,64.0218236 C56.3956045,64.0218236 59.6265822,63.9064547 62.753094,63.682723 C64.5261938,61.0152428 66.2122174,58.2907223 67.808492,55.5134807 Z M77.0952209,5.16591304 L77.0952209,5.16591304 C73.782163,3.25228323 66.5110642,5.92959006 58.7311611,12.7106683 C57.9051341,13.4324907 57.0971404,14.1747553 56.3079279,14.9367752 C59.3197139,18.186723 62.3198408,21.9415851 65.2155019,26.071046 C70.1860215,26.5381267 74.9336185,27.2901267 79.3053252,28.3004224 C79.4758651,27.6039604 79.6338332,26.9044708 79.7791522,26.2022957 C81.9962521,15.4234733 80.6237395,7.20425342 77.0952209,5.16591304 Z" id="Combined-Shape"></path>
                    <path d="M53.1030667,37.501913 C58.3002397,37.501913 62.512916,41.7215205 62.512916,46.9262012 C62.512916,52.1313491 58.3002397,56.3509565 53.1030667,56.3509565 C47.90636,56.3509565 43.6932174,52.1313491 43.6932174,46.9262012 C43.6932174,41.7215205 47.90636,37.501913 53.1030667,37.501913" id="Shape"></path>
                </g>
            </g>
        </g>
    </g>
</svg>