<?xml version="1.0" encoding="UTF-8"?>
<svg width="191px" height="191px" viewBox="0 0 191 191" version="1.1" xmlns="http://www.w3.org/2000/svg" xmlns:xlink="http://www.w3.org/1999/xlink">
    <!-- Generator: Sketch 42 (36781) - http://www.bohemiancoding.com/sketch -->
    <title>sass</title>
    <desc>Created with Sketch.</desc>
    <defs>
        <filter x="-50%" y="-50%" width="200%" height="200%" filterUnits="objectBoundingBox" id="filter-1">
            <feOffset dx="0" dy="10" in="SourceAlpha" result="shadowOffsetOuter1"></feOffset>
            <feGaussianBlur stdDeviation="10" in="shadowOffsetOuter1" result="shadowBlurOuter1"></feGaussianBlur>
            <feColorMatrix values="0 0 0 0 0   0 0 0 0 0   0 0 0 0 0  0 0 0 0.22 0" type="matrix" in="shadowBlurOuter1" result="shadowMatrixOuter1"></feColorMatrix>
            <feMerge>
                <feMergeNode in="shadowMatrixOuter1"></feMergeNode>
                <feMergeNode in="SourceGraphic"></feMergeNode>
            </feMerge>
        </filter>
        <linearGradient x1="79.7636501%" y1="7.34219012%" x2="20.8521403%" y2="92.0144388%" id="linearGradient-2">
            <stop stop-color="#FFFFFF" stop-opacity="0.5" offset="0%"></stop>
            <stop stop-color="#000000" stop-opacity="0.5" offset="100%"></stop>
        </linearGradient>
        <circle id="path-3" cx="60" cy="60" r="60"></circle>
        <mask id="mask-4" maskContentUnits="userSpaceOnUse" maskUnits="objectBoundingBox" x="-3" y="-3" width="126" height="126">
            <rect x="-3" y="-3" width="126" height="126" fill="white"></rect>
            <use xlink:href="#path-3" fill="black"></use>
        </mask>
        <path d="M98.1333333,49.4052083 C94.1555556,49.4278281 90.7111111,50.390625 87.8222222,51.8241823 C86.7555556,49.6965781 85.6888889,47.8375 85.5113333,46.4491823 C85.3113333,44.8366823 85.0668889,43.8510417 85.3113333,41.925224 C85.5555556,39.9989583 86.6666667,37.2666667 86.6666667,37.0427083 C86.6442222,36.8411458 86.422,35.8557292 84.1333333,35.8333333 C81.8446667,35.8109375 79.8666667,36.28125 79.6444444,36.8859375 C79.4222222,37.490625 78.9777778,38.8791667 78.6888889,40.3125 C78.2888889,42.4177083 74.1111111,49.8755208 71.7333333,53.7947917 C70.9555556,52.271875 70.2888889,50.928125 70.1553333,49.852901 C69.9555556,48.240625 69.7108889,47.2549844 69.9555556,45.3291667 C70.2,43.402901 71.3111111,40.6708333 71.3111111,40.446875 C71.2888889,40.2453125 71.0666667,39.2598958 68.778,39.2375 C66.4888889,39.2151042 64.5113333,39.6854167 64.2891111,40.2901042 C64.0668889,40.8947917 63.8224444,42.328125 63.3335556,43.7166667 C62.8666667,45.1052083 57.3111111,57.5572917 55.8666667,60.8046875 C55.1333333,62.4619792 54.4891111,63.7833333 54.0222222,64.6791667 C53.5555556,65.575 54,64.7463542 53.9555556,64.8359375 C53.5555556,65.5973958 53.3333333,66.0229167 53.3333333,66.0229167 L53.3333333,66.0455365 C53.0222222,66.6054323 52.6888889,67.1427083 52.5331111,67.1427083 C52.422,67.1427083 52.1997778,65.6421875 52.5775556,63.5819948 C53.3997778,59.259375 55.3997778,52.5184531 55.3777778,52.272099 C55.3777778,52.1601198 55.7553333,50.9729167 54.0886667,50.3684531 C52.4664444,49.7637656 51.8888889,50.7715781 51.7553333,50.7715781 C51.622,50.7715781 51.5108889,51.1299115 51.5108889,51.1299115 C51.5108889,51.1299115 53.3108889,43.5379479 48.0664444,43.5379479 C44.7775556,43.5379479 40.2442222,47.1436771 37.9997778,50.4358646 C36.5775556,51.2197188 33.5553333,52.8767865 30.3553333,54.6462813 C29.1331111,55.3181563 27.8664444,56.0348229 26.6664444,56.6843021 L26.4222222,56.4151042 C20.0666667,49.584375 8.31111111,44.746875 8.8,35.5645833 C8.97777778,32.2276042 10.1333333,23.4260417 31.378,12.765625 C48.778,4.03125 62.7113333,6.42760417 65.1333333,11.7578125 C68.5777778,19.3723958 57.6888889,33.5265625 39.6002222,35.5645833 C32.7113333,36.3484375 29.0888889,33.6609375 28.178,32.653125 C27.2224444,31.6005208 27.0891111,31.5557292 26.7335556,31.7572917 C26.1557778,32.0708333 26.5113333,33.0114583 26.7335556,33.5713542 C27.2668889,34.9822917 29.4891111,37.490625 33.2668889,38.7447917 C36.5777778,39.8421875 44.6668889,40.446875 54.4446667,36.6395833 C65.4002222,32.3619792 73.9557778,20.4921875 71.4446667,10.5708333 C68.8891111,0.4703125 52.2668889,-2.84427083 36.5557778,2.77708333 C27.2,6.13645833 17.0666667,11.3770833 9.77777778,18.2526042 C1.11111111,26.4046875 -0.266666667,33.5265625 0.311111111,36.4828125 C2.33355556,47.03125 16.7555556,53.9067708 22.5333333,58.990625 C22.2444444,59.1471719 21.9777778,59.3039427 21.7333333,59.4385417 C18.8444444,60.871651 7.84444444,66.6723958 5.08888889,72.8086302 C1.97777778,79.7513385 5.57777778,84.7458333 7.97777778,85.4177083 C15.4,87.5005208 23,83.7604167 27.1111111,77.6015625 C31.1997778,71.4427083 30.7111111,63.4473958 28.8222222,59.796875 L28.7553333,59.6625 L31.022,58.31875 C32.4888889,57.4453125 33.9333333,56.6390625 35.1997778,55.9445677 C34.4888889,57.8930052 33.9775556,60.199776 33.7111111,63.559151 C33.4,67.5010417 35,72.6070677 37.1111111,74.6226927 C38.0444444,75.4959063 39.1555556,75.518526 39.8444444,75.518526 C42.2888889,75.518526 43.4,73.4802813 44.6222222,71.0393594 C46.1333333,68.0607135 47.4666667,64.6117552 47.4666667,64.6117552 C47.4666667,64.6117552 45.8,73.9508177 50.3555556,73.9508177 C52.0222222,73.9508177 53.6888889,71.7784219 54.4444444,70.6586302 L54.4444444,70.681026 C54.4444444,70.681026 54.4888889,70.6138385 54.5777778,70.4570677 C54.6710192,70.3181219 54.7599511,70.1762878 54.8444444,70.0317708 L54.8444444,69.9869792 C55.5111111,68.8223958 57,66.1572917 59.2222222,61.7453125 C62.0886667,56.0567708 64.8444444,48.9348958 64.8444444,48.9348958 C64.8444444,48.9348958 65.1111111,50.6817708 65.9333333,53.5484375 C66.422,55.2507448 67.4886667,57.109375 68.3108889,58.9234375 C67.6442222,59.8640625 67.2442222,60.4017865 67.2442222,60.4017865 L67.2664444,60.4241823 C66.7333333,61.140849 66.1331111,61.9025313 65.5111111,62.6637656 C63.2444444,65.3960573 60.5333333,68.5093021 60.1777778,69.4051354 C59.7555556,70.4575156 59.8444444,71.2413698 60.6666667,71.8686771 C61.2666667,72.3165938 62.3333333,72.4059531 63.4666667,72.3165938 C65.5111111,72.1819948 66.9333333,71.6671146 67.6444444,71.353349 C68.7555556,70.950224 70.0222222,70.3455365 71.2444444,69.4497031 C73.4666667,67.7926354 74.8222222,65.4410729 74.6888889,62.3056563 C74.6222222,60.5811771 74.0666667,58.8790938 73.3777778,57.2665938 C73.5777778,56.9754479 73.778,56.6840781 73.9777778,56.3707604 C77.4888889,51.197099 80.2,45.5087813 80.2,45.5087813 C80.2,45.5087813 80.4666667,47.2556563 81.2888889,50.1223229 C81.7108889,51.5780521 82.5555556,53.1683802 83.3111111,54.7360885 C80.0222222,57.4459844 77.9555556,60.581401 77.2444444,62.6418177 C75.9333333,66.4491094 76.9555556,68.1735885 78.8888889,68.5767135 C79.7553333,68.7558802 81,68.3527552 81.9331111,67.9496302 C83.0886667,67.568901 84.4886667,66.9191979 85.7777778,65.956401 C88,64.2991094 90.1333333,61.9923385 90.0222222,58.8793177 C89.9555556,57.4459844 89.5777778,56.0350469 89.0666667,54.6912969 C91.8666667,53.5267135 95.4886667,52.8548385 100.088889,53.4147344 C109.977778,54.5793177 111.933333,60.8053594 111.555778,63.403276 C111.178,66.0014167 109.111333,67.434526 108.422222,67.8824427 C107.733333,68.3079635 107.511111,68.4649583 107.577778,68.778276 C107.666667,69.2488125 107.977778,69.2261927 108.577778,69.1368333 C109.4,69.0022344 113.777778,67.0092292 113.955556,62.2167448 C114.222222,56.0569948 108.422222,49.3382448 98.1333333,49.4052083 L98.1333333,49.4052083 Z M21.8666667,75.3171875 C18.6,78.9229167 14,80.2890625 12.0444444,79.1244792 C9.93333333,77.8927083 10.7553333,72.5848958 14.7777778,68.7552083 C17.2222222,66.4260417 20.4,64.2760417 22.4888889,62.9546875 C22.9555556,62.6635417 23.6666667,62.2382448 24.5111111,61.7229167 C24.6444444,61.6335573 24.7333333,61.5885417 24.7333333,61.5885417 C24.8888889,61.4989583 25.0666667,61.3869792 25.2444444,61.275 C26.7333333,66.7395833 25.3111111,71.5322917 21.8666667,75.3171875 L21.8666667,75.3171875 Z M45.7555556,58.9458333 C44.6222222,61.7453125 42.2222222,68.934375 40.7777778,68.53125 C39.5331111,68.1953125 38.7777778,62.753125 40.5331111,57.378125 C41.422,54.6680052 43.3108889,51.4432292 44.422,50.1888385 C46.2222222,48.1732135 48.1775556,47.5013385 48.6666667,48.3299844 C49.2444444,49.4052083 46.4666667,57.1989583 45.7555556,58.9458333 Z M65.4666667,68.4416667 C64.9777778,68.6882448 64.5333333,68.8671875 64.3333333,68.7330365 C64.1777778,68.6434531 64.5331111,68.3075156 64.5331111,68.3075156 C64.5331111,68.3075156 66.9997778,65.6424115 67.9775556,64.4106406 C68.5331111,63.6941979 69.1997778,62.8655521 69.9108889,61.9247031 L69.9108889,62.1934531 C69.9111111,65.4182292 66.8444444,67.5682292 65.4666667,68.4416667 Z M80.6664444,64.9479167 C80.3108889,64.6791667 80.3555556,63.8505208 81.5553333,61.2526042 C82.0222222,60.2223958 83.0886667,58.4979167 84.9331111,56.8630208 C85.1553333,57.5348958 85.2888889,58.184151 85.2664444,58.7890625 C85.2444444,62.8203125 82.4,64.3208333 80.6664444,64.9479167 Z" id="path-5"></path>
        <mask id="mask-6" maskContentUnits="userSpaceOnUse" maskUnits="objectBoundingBox" x="-3" y="-3" width="119.767845" height="91.9437595">
            <rect x="-2.80348104" y="-2.94611361" width="119.767845" height="91.9437595" fill="white"></rect>
            <use xlink:href="#path-5" fill="black"></use>
        </mask>
    </defs>
    <g id="icons" stroke="none" stroke-width="1" fill="none" fill-rule="evenodd">
        <g id="sass">
            <g id="Group" filter="url(#filter-1)" transform="translate(35.000000, 35.000000)">
                <g id="bg">
                    <use fill="#A0F4EB" fill-rule="evenodd" xlink:href="#path-3"></use>
                    <use fill-opacity="0.400000006" fill="url(#linearGradient-2)" fill-rule="evenodd" style="mix-blend-mode: multiply;" xlink:href="#path-3"></use>
                    <use stroke="#FFFFFF" mask="url(#mask-4)" stroke-width="6" xlink:href="#path-3"></use>
                </g>
                <g id="sass-1" transform="translate(6.000000, 18.000000)" fill-rule="nonzero">
                    <g id="Shape">
                        <use fill="#CF649A" fill-rule="evenodd" xlink:href="#path-5"></use>
                        <use stroke="#FFFFFF" mask="url(#mask-6)" stroke-width="6" stroke-linejoin="round" xlink:href="#path-5"></use>
                    </g>
                </g>
            </g>
        </g>
    </g>
</svg>