<?xml version="1.0" encoding="UTF-8"?>
<svg width="191px" height="191px" viewBox="0 0 191 191" version="1.1" xmlns="http://www.w3.org/2000/svg" xmlns:xlink="http://www.w3.org/1999/xlink">
    <!-- Generator: Sketch 42 (36781) - http://www.bohemiancoding.com/sketch -->
    <title>svg</title>
    <desc>Created with Sketch.</desc>
    <defs>
        <filter x="-50%" y="-50%" width="200%" height="200%" filterUnits="objectBoundingBox" id="filter-1">
            <feOffset dx="0" dy="10" in="SourceAlpha" result="shadowOffsetOuter1"></feOffset>
            <feGaussianBlur stdDeviation="10" in="shadowOffsetOuter1" result="shadowBlurOuter1"></feGaussianBlur>
            <feColorMatrix values="0 0 0 0 0   0 0 0 0 0   0 0 0 0 0  0 0 0 0.22 0" type="matrix" in="shadowBlurOuter1" result="shadowMatrixOuter1"></feColorMatrix>
            <feMerge>
                <feMergeNode in="shadowMatrixOuter1"></feMergeNode>
                <feMergeNode in="SourceGraphic"></feMergeNode>
            </feMerge>
        </filter>
        <linearGradient x1="79.7636501%" y1="7.34219012%" x2="20.8521403%" y2="92.0144388%" id="linearGradient-2">
            <stop stop-color="#FFFFFF" stop-opacity="0.5" offset="0%"></stop>
            <stop stop-color="#000000" stop-opacity="0.5" offset="100%"></stop>
        </linearGradient>
        <circle id="path-3" cx="60" cy="60" r="60"></circle>
        <mask id="mask-4" maskContentUnits="userSpaceOnUse" maskUnits="objectBoundingBox" x="-3" y="-3" width="126" height="126">
            <rect x="-3" y="-3" width="126" height="126" fill="white"></rect>
            <use xlink:href="#path-3" fill="black"></use>
        </mask>
    </defs>
    <g id="icons" stroke="none" stroke-width="1" fill="none" fill-rule="evenodd">
        <g id="svg">
            <g id="Group" filter="url(#filter-1)" transform="translate(35.000000, 35.000000)">
                <g id="bg">
                    <use fill="#F0FAFA" fill-rule="evenodd" xlink:href="#path-3"></use>
                    <use fill-opacity="0.400000006" fill="url(#linearGradient-2)" fill-rule="evenodd" style="mix-blend-mode: multiply;" xlink:href="#path-3"></use>
                    <use stroke="#FFFFFF" mask="url(#mask-4)" stroke-width="6" xlink:href="#path-3"></use>
                </g>
            </g>
            <g id="Group" transform="translate(50.000000, 42.000000)">
                <path d="M88.2223164,24.9707937 C88.3076547,25.2565107 88.3510609,25.5471628 88.3510609,25.8396853 C88.3510609,26.5391253 88.0873284,27.1682555 87.5900242,27.6677552 C87.09272,28.167255 86.4663552,28.4321519 85.7699896,28.4321519 C85.0639636,28.4321519 84.4353162,28.1591042 83.9529281,27.6422852 C83.4872901,27.1434118 83.2439711,26.5242824 83.2439711,25.8396853 C83.2439711,25.3965097 83.3446508,24.986753 83.5476549,24.6320135 C83.4612077,23.6361238 83.2746457,22.6611315 82.9878045,21.7058273 C82.6805836,20.6826504 82.1983313,19.7703986 81.5377849,18.9612978 C80.8914187,18.1695662 80.0592343,17.5327217 79.0293577,17.0478357 C78.011314,16.5685208 76.7368126,16.3223423 75.1998371,16.3223423 C73.565288,16.3223423 72.230428,16.6003034 71.1868004,17.1403033 C70.1210409,17.6917549 69.2788323,18.3940338 68.6473073,19.2503565 C68.0008247,20.1269612 67.5393262,21.1272232 67.2615518,22.2596381 C66.9706156,23.4457103 66.8253857,24.6384203 66.8253857,25.8396853 L66.8253857,81.9097626 C66.8253857,83.1466063 66.9703083,84.336793 67.2597138,85.4824268 C67.5362084,86.5769521 67.9960942,87.5494072 68.6414312,88.4082538 C69.265566,89.2388834 70.0969863,89.9006536 71.150874,90.397847 C72.2039386,90.894652 73.5521705,91.1506258 75.1998371,91.1506258 C76.8475036,91.1506258 78.1957355,90.894652 79.2488001,90.397847 C80.3026879,89.9006536 81.1341082,89.2388834 81.7582429,88.4082538 C82.4035799,87.5494072 82.8634657,86.5769521 83.1399603,85.4824268 C83.4293658,84.336793 83.5742884,83.1466063 83.5742884,81.9097626 L83.5742884,62.8815189 L76.4472548,62.8815189 C76.0838871,63.1033271 75.6599529,63.2132945 75.1998371,63.2132945 C74.5034714,63.2132945 73.8771066,62.9483976 73.3798025,62.4488979 C72.8824983,61.9493981 72.6187657,61.320268 72.6187657,60.6208279 C72.6187657,59.9116848 72.8906133,59.280262 73.4051606,58.7957441 C73.9018412,58.3280503 74.5182491,58.0836571 75.1998371,58.0836571 C75.6599529,58.0836571 76.0838871,58.1936246 76.4472548,58.4154328 L88.0207436,58.4154328 L88.0207436,81.9097626 C88.0207436,83.6271297 87.8065438,85.2896177 87.3777721,86.8948227 C86.9357932,88.5494717 86.20796,90.0217182 85.196037,91.3023704 C84.1689057,92.6022695 82.8207276,93.6383843 81.1653798,94.4088835 C79.5052989,95.1815857 77.5149791,95.5614161 75.1998371,95.5614161 C72.8121594,95.5614161 70.7857725,95.1822854 69.1241886,94.4088835 C67.465923,93.6370262 66.1243855,92.5981446 65.1144207,91.2938854 C64.121535,90.0116822 63.4133075,88.5381624 62.9912079,86.8826873 C62.5828833,85.2812378 62.3789305,83.6229019 62.3789305,81.9097626 L62.3789305,25.8396853 C62.3789305,24.1644774 62.5826271,22.5082246 62.989669,20.8728686 C63.4095364,19.1859842 64.1133004,17.6712606 65.0995795,16.3369379 C66.1062998,14.9749606 67.4461766,13.8859989 69.1045259,13.0734765 C70.7714109,12.256772 72.8050634,11.8562561 75.1998371,11.8562561 C77.4392171,11.8562561 79.3629364,12.2166688 80.9663563,12.9505671 C82.5617515,13.6807924 83.8784937,14.6650197 84.9042789,15.9013966 C85.9118898,17.115868 86.6675515,18.502304 87.168976,20.05351 C87.6248036,21.4636575 87.9019713,22.932165 88.0007192,24.4569767 C88.0937983,24.614647 88.1673349,24.7867129 88.2223164,24.9707937 Z" id="Combined-Shape" fill="#184155"></path>
                <path d="M47.7919123,101.16842 C47.7919123,102.027574 47.4618118,102.792567 46.8370043,103.379579 C46.2338922,103.946208 45.4853968,104.2423 44.6577543,104.2423 C43.8185293,104.2423 43.0672594,103.937078 42.4811372,103.3497 C41.895015,102.762322 41.5904462,102.009443 41.5904462,101.16842 C41.5904462,100.974618 41.6054321,100.764365 41.6341355,100.534246 C41.6600978,100.326103 41.7154518,100.127203 41.7978682,99.9408049 L27.6910118,7.88385162 C27.2895361,7.33737711 27.0840129,6.68591202 27.0840129,5.97115198 C27.0840129,5.14173621 27.3794716,4.39163716 27.9448892,3.78723286 C28.5306462,3.16108671 29.2940038,2.8302789 30.151321,2.8302789 C30.9969079,2.8302789 31.7574937,3.1512117 32.361363,3.75637487 C32.9652324,4.36153803 33.2854791,5.12375342 33.2854791,5.97115198 C33.2854791,6.32597498 33.2463018,6.64006459 33.1504185,6.92833091 C33.1263651,7.00064546 33.0992686,7.07209434 33.0692131,7.14267586 L44.6611318,83.0707427 L56.3012553,7.21792357 C56.229223,7.06368845 56.1772915,6.89986839 56.1483897,6.72608617 C56.1123081,6.50913277 56.0968794,6.26174464 56.0968794,5.97115198 C56.0968794,5.14173621 56.3923381,4.39163716 56.9577558,3.78723286 C57.5435128,3.16108671 58.3068703,2.8302789 59.1641876,2.8302789 C60.0097744,2.8302789 60.7703602,3.1512117 61.3742296,3.75637487 C61.9780989,4.36153803 62.2983456,5.12375342 62.2983456,5.97115198 C62.2983456,6.45717261 62.1897827,6.91411366 61.9639494,7.32148461 C61.8840045,7.46569376 61.7990337,7.61468229 61.7090228,7.76850302 L47.5678129,100.049637 C47.7138676,100.430184 47.7919123,100.801123 47.7919123,101.16842 Z" id="Combined-Shape" fill="#184155"></path>
                <path d="M1.85725977,82.7786541 C1.77192144,82.4929372 1.72851526,82.2022851 1.72851526,81.9097626 C1.72851526,81.2006195 2.00036278,80.5691967 2.51491011,80.0846788 C3.01159068,79.616985 3.62799863,79.3725918 4.30958659,79.3725918 C5.00071306,79.3725918 5.6194059,79.6245206 6.10209476,80.1093405 C6.58478361,80.5941604 6.83560503,81.2155848 6.83560503,81.9097626 C6.83560503,82.2022851 6.79219885,82.4929372 6.70686053,82.7786541 C6.6578809,82.9426404 6.59492951,83.0996426 6.51820096,83.2487666 C6.57421107,84.2797133 6.75380274,85.2574694 7.05638851,86.1844304 C7.37698849,87.1665775 7.86136735,88.0199768 8.51250456,88.7537463 C9.15321348,89.4757642 9.98202638,90.0545305 11.0111032,90.490589 C12.0400395,90.9265879 13.3287908,91.1506258 14.8797391,91.1506258 C16.5290723,91.1506258 17.8882866,90.8941308 18.9619421,90.3951717 C20.0323413,89.8977258 20.8707657,89.2366175 21.4931978,88.4082538 C22.1415874,87.5453446 22.6120568,86.5676621 22.9063066,85.4675637 C23.2115043,84.3265344 23.3642962,83.1414325 23.3642962,81.9097626 L23.3642962,67.7540034 C23.3642962,65.9867095 23.0185196,64.3010183 22.3253172,62.6877264 C21.6337116,61.0781505 20.6499286,59.6846391 19.3831563,58.5124692 L6.17391972,46.7375012 C5.18238914,45.861102 4.38074061,44.9452009 3.77225731,43.9877017 C3.17731062,43.0515034 2.71749169,42.1177652 2.39485315,41.1860841 C2.07399014,40.2595302 1.8628463,39.3203364 1.76218384,38.3699318 C1.66632077,37.4648405 1.61840951,36.5505075 1.61840951,35.6270656 L1.61840951,25.8396853 C1.61840951,24.1602907 1.8323288,22.49998 2.25970695,20.8609682 C2.69936814,19.1748504 3.42267927,17.6612993 4.42800655,16.3284085 C5.45202899,14.9707311 6.79863668,13.8845901 8.45411068,13.0734765 C10.1209957,12.256772 12.1546481,11.8562561 14.5494218,11.8562561 C16.7888019,11.8562561 18.7125211,12.2166688 20.3159411,12.9505671 C21.9113363,13.6807924 23.2280784,14.6650197 24.2538637,15.9013966 C25.2614746,17.115868 26.0171362,18.502304 26.5185608,20.05351 C26.9743884,21.4636575 27.251556,22.932165 27.350304,24.4569767 C27.4433831,24.614647 27.5169197,24.7867129 27.5719012,24.9707937 C27.6572395,25.2565107 27.7006457,25.5471628 27.7006457,25.8396853 C27.7006457,26.5242824 27.4573267,27.1434118 26.9916887,27.6422852 C26.5093006,28.1591042 25.8806532,28.4321519 25.1746272,28.4321519 C24.4782616,28.4321519 23.8518968,28.167255 23.3545926,27.6677552 C22.8572884,27.1682555 22.5935559,26.5391253 22.5935559,25.8396853 C22.5935559,25.3965097 22.6942356,24.986753 22.8972396,24.6320135 C22.8107925,23.6361238 22.6242304,22.6611315 22.3373892,21.7058273 C22.0301684,20.6826504 21.5479161,19.7703986 20.8873697,18.9612978 C20.2410035,18.1695662 19.4088191,17.5327217 18.3789425,17.0478357 C17.3608988,16.5685208 16.0863974,16.3223423 14.5494218,16.3223423 C12.9131133,16.3223423 11.5671336,16.6009202 10.502918,17.1433542 C9.42080273,17.6949118 8.57163974,18.3963721 7.94183923,19.2503565 C7.29240244,20.130967 6.82040884,21.1363381 6.5248931,22.2741498 C6.21800011,23.4557668 6.06486475,24.6435329 6.06486475,25.8396853 L6.06402401,35.583982 C6.13346055,37.3624312 6.40008168,38.9260275 6.85935873,40.275771 C7.29161128,41.5460937 8.07274644,42.6865712 9.21852033,43.7058808 L22.5050585,55.5009924 C24.6125563,57.4609946 26.0377934,59.5088771 26.7616539,61.6496539 C27.459926,63.7147547 27.8107514,65.750695 27.8107514,67.7540034 L27.8107514,81.9097626 C27.8107514,83.6271297 27.5965516,85.2896177 27.1677798,86.8948227 C26.725801,88.5494717 25.9979678,90.0217182 24.9860448,91.3023704 C23.9589135,92.6022695 22.6107354,93.6383843 20.9553876,94.4088835 C19.2938037,95.1822854 17.2674168,95.5614161 14.8797391,95.5614161 C12.6465644,95.5614161 10.7382756,95.221998 9.15725921,94.5297944 C7.58530306,93.8415575 6.27190508,92.9109615 5.22797858,91.739069 C4.18739782,90.5709323 3.4221396,89.2078831 2.93543614,87.659851 C2.49645268,86.2635994 2.21266198,84.8165042 2.08393704,83.3199735 C1.98976292,83.149872 1.91410244,82.9689662 1.85725977,82.7786541 Z" id="Combined-Shape" fill="#184155"></path>
                <g id="circles" transform="translate(0.300043, 0.445026)" fill="#E14A69">
                    <ellipse id="Oval-Copy-4" cx="85.534838" cy="25.3553294" rx="3.28393088" ry="3.2361948"></ellipse>
                    <ellipse id="Oval-Copy-5" cx="74.5884017" cy="59.7960091" rx="3.28393088" ry="3.2361948"></ellipse>
                    <ellipse id="Oval-Copy-2" cx="29.8643907" cy="4.46527709" rx="3.98763035" ry="3.92077447"></ellipse>
                    <ellipse id="Oval-Copy-3" cx="58.8724468" cy="4.46527709" rx="3.98763035" ry="3.92077447"></ellipse>
                    <ellipse id="Oval-Copy-6" cx="44.6420796" cy="101.393658" rx="3.98763035" ry="3.92077447"></ellipse>
                    <ellipse id="Oval-Copy" cx="24.7821167" cy="24.8159636" rx="3.28393088" ry="3.2361948"></ellipse>
                    <ellipse id="Oval-Copy-7" cx="3.98388783" cy="79.8312753" rx="3.28393088" ry="3.2361948"></ellipse>
                </g>
            </g>
        </g>
    </g>
</svg>