<?xml version="1.0" encoding="UTF-8"?>
<svg width="183px" height="183px" viewBox="0 0 183 183" version="1.1" xmlns="http://www.w3.org/2000/svg" xmlns:xlink="http://www.w3.org/1999/xlink">
    <!-- Generator: Sketch 42 (36781) - http://www.bohemiancoding.com/sketch -->
    <title>thoughts</title>
    <desc>Created with Sketch.</desc>
    <defs>
        <ellipse id="path-1" cx="81.5" cy="82" rx="21.5" ry="22.8514846"></ellipse>
        <filter x="-50%" y="-50%" width="200%" height="200%" filterUnits="objectBoundingBox" id="filter-2">
            <feMorphology radius="1.5" operator="dilate" in="SourceAlpha" result="shadowSpreadOuter1"></feMorphology>
            <feOffset dx="-1" dy="3" in="shadowSpreadOuter1" result="shadowOffsetOuter1"></feOffset>
            <feComposite in="shadowOffsetOuter1" in2="SourceAlpha" operator="out" result="shadowOffsetOuter1"></feComposite>
            <feColorMatrix values="0 0 0 0 0.882352941   0 0 0 0 0.290061002   0 0 0 0 0.413665983  0 0 0 1 0" type="matrix" in="shadowOffsetOuter1"></feColorMatrix>
        </filter>
        <ellipse id="path-3" cx="35" cy="87" rx="16" ry="18"></ellipse>
        <filter x="-50%" y="-50%" width="200%" height="200%" filterUnits="objectBoundingBox" id="filter-4">
            <feMorphology radius="1.5" operator="dilate" in="SourceAlpha" result="shadowSpreadOuter1"></feMorphology>
            <feOffset dx="3" dy="2" in="shadowSpreadOuter1" result="shadowOffsetOuter1"></feOffset>
            <feComposite in="shadowOffsetOuter1" in2="SourceAlpha" operator="out" result="shadowOffsetOuter1"></feComposite>
            <feColorMatrix values="0 0 0 0 0.882352941   0 0 0 0 0.290061002   0 0 0 0 0.413665983  0 0 0 1 0" type="matrix" in="shadowOffsetOuter1"></feColorMatrix>
        </filter>
        <path d="M0.380836893,7.93096575 C4.60331616,19.0808615 15.1552635,26.5552166 27.8822128,28.6792087 C40.609162,30.8032008 69.7881941,27.1970901 64.8728315,8.79104794 C62.581496,0.210924468 47.8414325,0.577500034 32.8140482,0.74569076 C17.7866639,0.913881487 -1.87329996,1.9786829 0.380836893,7.93096575 Z" id="path-5"></path>
        <filter x="-50%" y="-50%" width="200%" height="200%" filterUnits="objectBoundingBox" id="filter-7">
            <feOffset dx="6" dy="3" in="SourceAlpha" result="shadowOffsetInner1"></feOffset>
            <feComposite in="shadowOffsetInner1" in2="SourceAlpha" operator="arithmetic" k2="-1" k3="1" result="shadowInnerInner1"></feComposite>
            <feColorMatrix values="0 0 0 0 0   0 0 0 0 0   0 0 0 0 0  0 0 0 0.3 0" type="matrix" in="shadowInnerInner1"></feColorMatrix>
        </filter>
    </defs>
    <g id="icons" stroke="none" stroke-width="1" fill="none" fill-rule="evenodd">
        <g id="thoughts">
            <g id="Group" transform="translate(17.000000, 36.000000)">
                <path d="M7.53192928,106.402496 C7.53192928,117.94183 21.2928502,123.971255 52.8849048,123.971255 C67.2974607,123.971255 78.0483582,121.832919 87.9779068,117.861071 C89.7844459,117.13845 91.5316828,116.370968 93.5179396,115.442477 C94.4564818,115.003749 97.7289579,113.435742 98.4393318,113.1038 C100.489764,112.145678 102.038866,111.490148 103.689284,110.934082 C106.569668,109.963612 109.544475,109.372989 113.114713,109.372989 C114.129201,109.372989 115.149006,109.407842 116.612329,109.477839 C117.188809,109.505415 119.528669,109.625854 120.089672,109.653348 C124.818898,109.885123 128.318357,109.949816 131.614608,109.804436 C135.953852,109.613056 138.842467,109.075631 140.386241,108.265585 C143.332657,106.719548 143.948767,103.166119 139.825721,96.7166528 C133.678207,87.1004176 119.773348,80.8543459 100.151619,77.7237879 C83.50923,75.0685702 63.6449086,74.945671 48.3215998,76.967292 C24.7487337,80.0772862 7.53192928,93.4058495 7.53192928,106.402496 Z" id="Path-Copy" fill="#D1E1E8"></path>
                <path d="M5,75.13398 C5,100.642684 19.2762346,113.971255 52.0513361,113.971255 C67.0036079,113.971255 78.1571008,109.244276 88.4584873,100.46416 C90.332677,98.8667432 92.1453437,97.1701566 94.2059811,95.1176476 C95.1796694,94.1478 98.5746919,90.6815833 99.3116677,89.9477965 C101.438883,87.8297854 103.045995,86.3806785 104.758218,85.1514468 C107.746466,83.0061369 110.832672,81.700514 114.536607,81.700514 C115.589085,81.700514 116.64708,81.7775591 118.1652,81.9322937 C118.763268,81.9932519 121.19075,82.259494 121.772762,82.3202723 C126.679086,82.8326297 130.309591,82.9756405 133.729279,82.6542654 C138.231017,82.2312015 141.227804,81.0431768 142.829389,79.2525003 C145.886141,75.8348515 146.525322,67.9796858 142.247878,53.7225776 C135.870155,32.4650501 121.444592,18.6575632 101.088076,11.7371915 C83.8224692,5.86760091 63.2142763,5.59592148 47.3171462,10.0648912 C22.8615326,16.9398049 5,46.4037578 5,75.13398 Z" id="Path" fill="#FB7994"></path>
                <path d="M109.18119,82.9503669 C109.18119,82.9503669 120.309706,78.5331452 122.385806,71.1006351 C124.461906,63.668125 124.818506,53.3469497 127.544492,50.4146731 C130.182615,47.5769093 136.291317,48.7973583 140.590437,53.6630679 C144.889557,58.5287776 149.722799,72.7035732 146.89078,77.2165252 C145.036396,80.1715719 139.450953,84.2020643 133.262657,84.9998512 C127.07436,85.7976381 109.18119,82.9503669 109.18119,82.9503669 Z" id="Path-3" fill="#E14A69"></path>
                <path d="M109.258528,80.4001637 C113.682816,77.8246328 121.611208,70.8706994 121.095115,58.2081659 C120.579022,45.5456323 119.218234,33.0266772 116.82674,34.3218436 C114.435246,35.61701 117.599893,53.6121754 117.599893,58.0897506 C117.599893,62.5673259 117.058637,69.8335795 108.380775,77.2902842 C99.7029134,84.7469889 104.834239,82.9756946 109.258528,80.4001637 Z" id="Path-5" fill="#E14A69"></path>
                <path d="M104.996889,72.8825061 C108.239609,73.7533271 114.431146,60.7470714 113.459092,53.8158806 C112.487038,46.8846898 112.654664,40.2272633 110.966911,38.9945074 C109.279158,37.7617514 109.625847,47.1078377 110.296379,53.3331192 C110.966911,59.5584007 107.042774,69.0089855 104.698089,70.2025545 C102.353403,71.3961236 101.754169,72.0116851 104.996889,72.8825061 Z" id="Path-6" fill="#E14A69"></path>
                <path d="M92.0902421,27.2312133 C89.3337495,21.7712318 84.6364771,15.6200978 77.3695501,14.3393934 C70.1026231,13.0586891 76.3267144,10.2709349 80.2429041,11.4635702 C84.1590938,12.6562056 91.6841954,17.8155129 95.1446725,25.5216871 C96.5993487,28.7611212 97.1452436,30.740203 95.5937222,31.5749662 C94.0422008,32.4097295 93.1285348,29.2878337 92.0902421,27.2312133 Z" id="Path-7" fill="#E14A69"></path>
                <path d="M5,75.13398 C5,100.642684 19.2762346,113.971255 52.0513361,113.971255 C67.0036079,113.971255 78.1571008,109.244276 88.4584873,100.46416 C90.332677,98.8667432 92.1453437,97.1701566 94.2059811,95.1176476 C95.1796694,94.1478 98.5746919,90.6815833 99.3116677,89.9477965 C101.438883,87.8297854 103.045995,86.3806785 104.758218,85.1514468 C107.746466,83.0061369 110.832672,81.700514 114.536607,81.700514 C115.589085,81.700514 116.64708,81.7775591 118.1652,81.9322937 C118.763268,81.9932519 121.19075,82.259494 121.772762,82.3202723 C126.679086,82.8326297 130.309591,82.9756405 133.729279,82.6542654 C138.231017,82.2312015 141.227804,81.0431768 142.829389,79.2525003 C145.886141,75.8348515 146.525322,67.9796858 142.247878,53.7225776 C135.870155,32.4650501 121.444592,18.6575632 101.088076,11.7371915 C83.8224692,5.86760091 63.2142763,5.59592148 47.3171462,10.0648912 C22.8615326,16.9398049 5,46.4037578 5,75.13398 Z M0.104222625,74.0314874 C0.104222625,46.678889 16.6917465,12.4906343 46.6556583,4.06723875 C76.6195702,-4.3561568 131.933393,1.2986683 146.937425,51.3084654 C152.235174,68.9663412 150.330365,79.01276 145.314055,84.6213236 C136.123408,94.8970673 116.488127,90.275895 111.568771,90.275895 C103.964399,90.275895 91.7219437,120.117813 53.786387,120.117813 C15.8508303,120.117813 0.104222625,101.384086 0.104222625,74.0314874 Z" id="Path-2" fill="#A92541" fill-rule="nonzero"></path>
                <path d="M33.5749601,23.4220271 C28.1771719,23.4220271 29.0992967,23.5151314 26.4752305,24.3971944 C23.8511644,25.2792575 23.183908,24.0203908 24.8295693,22.7593832 C26.4752305,21.4983757 29.8464811,18.9620877 34.3174559,19.8591372 C38.7884307,20.7561867 38.3870116,20.93713 40.7237628,23.4220271 C43.8731338,18.4281813 45.2829339,17.9031492 47.3606092,17.0831179 C49.4382846,16.2630866 50.1094204,17.9314909 50.1715818,18.0597211 C50.2208932,18.1614435 49.677643,19.4219919 47.3606092,21.0727826 C45.0435755,22.7235733 42.6166162,24.5422484 40.7237628,27.4686787 C38.987302,26.8446439 38.9727483,23.4220271 33.5749601,23.4220271 Z" id="Path-8" fill="#E14A69"></path>
            </g>
            <g id="Oval" transform="translate(81.500000, 82.000000) rotate(23.000000) translate(-81.500000, -82.000000) ">
                <use fill="black" fill-opacity="1" filter="url(#filter-2)" xlink:href="#path-1"></use>
                <use stroke="#A92541" stroke-width="3" fill="#FFFFFF" fill-rule="evenodd" xlink:href="#path-1"></use>
            </g>
            <circle id="Oval-2" fill="#4A4A4A" cx="76.4237619" cy="86.7128712" r="7.99801962"></circle>
            <g id="Oval-Copy" transform="translate(35.000000, 87.000000) rotate(18.000000) translate(-35.000000, -87.000000) ">
                <use fill="black" fill-opacity="1" filter="url(#filter-4)" xlink:href="#path-3"></use>
                <use stroke="#A92541" stroke-width="3" fill="#FFFFFF" fill-rule="evenodd" xlink:href="#path-3"></use>
            </g>
            <circle id="Oval-2-Copy" fill="#4A4A4A" cx="34" cy="92" r="6"></circle>
            <g id="Group-2" transform="translate(29.000000, 115.000000)">
                <mask id="mask-6" fill="white">
                    <use xlink:href="#path-5"></use>
                </mask>
                <g id="Path-4">
                    <use fill="#480D19" fill-rule="evenodd" xlink:href="#path-5"></use>
                    <use fill="black" fill-opacity="1" filter="url(#filter-7)" xlink:href="#path-5"></use>
                </g>
                <path d="M69.5856103,5.62236661 C61.8351049,15.480569 54.5510109,19.6724799 44.6327317,22.9007637 C34.7144526,26.1290475 22.4387266,25.4528073 13.2328955,25.4528073 C-6.05227039,25.4528073 42.6574211,37.5366749 52.8144761,31.0654683 C62.9715311,24.5942616 68.0926582,24.3058951 69.5856103,5.62236661 Z" id="Path-9" fill="#FFFFFF" mask="url(#mask-6)"></path>
            </g>
        </g>
    </g>
</svg>