<?xml version="1.0" encoding="UTF-8"?>
<svg width="70px" height="70px" viewBox="0 0 70 70" version="1.1" xmlns="http://www.w3.org/2000/svg" xmlns:xlink="http://www.w3.org/1999/xlink">
    <!-- Generator: Sketch 45.2 (43514) - http://www.bohemiancoding.com/sketch -->
    <title>teal/arrow_right</title>
    <desc>Created with Sketch.</desc>
    <defs></defs>
    <g id="icons" stroke="none" stroke-width="1" fill="none" fill-rule="evenodd">
        <g id="teal/arrow_right" fill-rule="nonzero" fill="#D7EFF0">
            <g id="Group">
                <path d="M48.1,35.2 L31.9,48.9 C31,49.7 29.6,49.6 28.8,48.7 C28,47.8 28.1,46.4 29,45.6 L41.3,35.2 L29,24.8 C28.1,24 28,22.6 28.8,21.7 C29.6,20.8 31,20.7 31.9,21.5 L48.1,35.2 Z" id="Shape"></path>
                <path d="M70,35 C70,54.3 54.2,70 35,70 C15.8,70 0,54.2 0,35 C0,15.8 15.8,0 35,0 C54.2,0 70,15.7 70,35 Z M4.3,35 C4.3,51.9 18.1,65.6 34.9,65.6 C51.7,65.6 65.6,51.9 65.6,35 C65.6,18.1 51.8,4.4 34.9,4.4 C18,4.4 4.3,18.2 4.3,35 Z" id="Shape"></path>
            </g>
        </g>
    </g>
</svg>